<?xml version="1.0" encoding="UTF-8"?>
<!DOCTYPE svg PUBLIC "-//W3C//DTD SVG 1.1//EN" "http://www.w3.org/Graphics/SVG/1.1/DTD/svg11.dtd">
<!-- Creator: CorelDRAW 2017 -->
<svg xmlns="http://www.w3.org/2000/svg" xml:space="preserve" width="8.5in" height="11in" version="1.1" style="shape-rendering:geometricPrecision; text-rendering:geometricPrecision; image-rendering:optimizeQuality; fill-rule:evenodd; clip-rule:evenodd"
viewBox="0 0 8500 11000"
 xmlns:xlink="http://www.w3.org/1999/xlink">
 <defs>
  <style type="text/css">
   <![CDATA[
    .fil0 {fill:#2C5954}
   ]]>
  </style>
    <clipPath id="id0">
     <rect x="4241" y="5741" width="2653" height="861"/>
    </clipPath>
   <clipPath id="id1">
    <rect x="407" y="5098" width="6944" height="1722"/>
   </clipPath>
 </defs>
 <g id="Layer_x0020_1">
  <metadata id="CorelCorpID_0Corel-Layer"/>
  <g id="_1591338642448">
   <g style="clip-path:url(#id0)">
    <image id="logo.png" x="4241" y="5741" width="2653" height="861" xlink:href="elite svg_Images\elite svg_ImgID1.png"/>
   </g>
   <g>
    <path class="fil0" d="M4970 6088c-3,-3 -6,-7 -8,-10l-7 -70 197 0 0 -65 -182 0 0 -63c153,0 199,26 203,-63l-344 0 0 342 344 0c0,-95 -35,-87 -203,-71z"/>
    <path class="fil0" d="M6205 5994l-122 0c31,-73 83,-36 122,0zm-263 38c0,147 215,136 365,114 -11,-29 -16,-29 -20,-63 -84,25 -121,12 -203,0l243 -25c0,-234 -385,-171 -385,-25z"/>
    <path class="fil0" d="M5699 5905l-61 0 0 63 61 0 0 152c81,34 25,38 162,38 47,0 61,-9 61,-38 0,-100 -101,71 -101,-152l101 0 0 -63 -101 0 0 -63c-99,1 -119,0 -121,63z"/>
    <path class="fil0" d="M5253 6159l122 0 0 -279c0,-74 -46,-66 -122,-89l0 367z"/>
    <path class="fil0" d="M5456 6121c0,29 14,38 61,38l81 0 0 -253 -142 0 0 215z"/>
    <path class="fil0" d="M4848 6361c45,-11 41,26 41,-38l20 0c0,65 -3,27 41,38 14,-18 20,-21 20,-51l20 0c0,76 -10,38 40,51l0 -114 -61 0 -40 76c0,-39 -9,-46 -20,-76l-61 0 0 114z"/>
    <path class="fil0" d="M5274 6298c35,48 38,24 -20,51 -29,-40 -44,-27 20,-51zm20 63l-81 38c135,-2 122,-16 122,-114l-122 0c-19,50 -37,76 81,76z"/>
    <path class="fil0" d="M5476 5880c70,0 122,8 122,-38 0,-46 -51,-38 -122,-38 -18,50 -18,26 0,76z"/>
    <path class="fil0" d="M5557 6336c1,-4 22,-3 24,-2 5,1 35,-29 9,3 0,0 -3,2 -3,2 -1,0 -7,1 -7,1 -16,0 -28,22 -22,-4zm0 -38c21,-13 73,18 23,7 0,0 -57,14 -23,-7zm20 63l61 0 0 -76 -101 0c-5,39 -49,76 41,76z"/>
    <path class="fil0" d="M6023 6298c35,48 38,24 -20,51 -29,-40 -44,-27 20,-51zm-61 63l101 0c18,-50 18,-26 0,-76l-101 0c-18,50 -18,26 0,76z"/>
    <path class="fil0" d="M5719 6323l0 38 61 0c-22,-60 -4,-52 -20,-101l-40 0c-25,73 0,6 0,63z"/>
    <path class="fil0" d="M5395 6361l40 0c2,-58 19,-39 41,-76l-81 0 0 76z"/>
    <path class="fil0" d="M6171 6361c-2,-46 5,-54 -4,-76 -11,9 -29,-20 -24,38 6,73 -6,13 29,38zm62 -76l-41 0c1,1 -37,27 41,0zm19 76c-1,-7 -2,-34 -5,-40 -26,-49 1,-23 -25,-11 8,75 4,32 30,51z"/>
    <polygon class="fil0" points="5112,6361 5152,6361 5152,6285 5112,6285 "/>
    <polygon class="fil0" points="5841,6361 5881,6361 5881,6285 5841,6285 "/>
    <path class="fil0" d="M4970 6088l0 -68c70,0 129,7 182,-11l-197 0 7 70c1,2 5,6 8,10z"/>
    <path class="fil0" d="M6171 6361l9 -52 42 1c26,-12 -1,-38 25,11 3,6 5,32 5,40l15 -63 -35 -13c-78,27 -40,1 -41,0l-25 0c10,22 2,30 4,76z"/>
    <path class="fil0" d="M5112 6260c4,14 45,28 27,3 -7,-11 -37,-35 -27,-3z"/>
    <path class="fil0" d="M5841 6260c0,15 44,29 31,0 -12,-29 52,0 -9,-4 -26,-1 -22,-22 -22,4z"/>
   </g>
  </g>
  <g style="clip-path:url(#id1)">
   <image id="logo.png_0" x="407" y="5098" width="6944" height="1722" xlink:href="elite svg_Images\elite svg_ImgID2.png"/>
  </g>
 </g>
</svg>
