<?xml version="1.0" standalone="no"?>
<!DOCTYPE svg PUBLIC "-//W3C//DTD SVG 20010904//EN"
 "http://www.w3.org/TR/2001/REC-SVG-20010904/DTD/svg10.dtd">
<svg version="1.0" xmlns="http://www.w3.org/2000/svg"
 width="1000.000000pt" height="1000.000000pt" viewBox="0 0 1000.000000 1000.000000"
 preserveAspectRatio="xMidYMid meet">

<g transform="translate(0.000000,1000.000000) scale(0.100000,-0.100000)"
fill="#000000" stroke="none">
<path d="M5870 6195 c13 -14 26 -25 28 -25 3 0 -5 11 -18 25 -13 14 -26 25
-28 25 -3 0 5 -11 18 -25z"/>
<path d="M6404 6143 c-54 -56 -66 -63 -139 -85 l-80 -23 68 -5 67 -5 -157
-157 c-87 -87 -183 -176 -214 -198 -146 -103 -538 -328 -849 -488 -247 -127
-371 -176 -542 -214 -201 -44 -521 -26 -586 35 -33 31 -52 108 -52 211 -1 85
-2 90 -17 71 -21 -27 -90 -173 -114 -242 -24 -69 -25 -181 -3 -228 18 -38 80
-75 169 -101 113 -32 368 -6 534 56 378 140 518 204 851 390 194 108 304 182
495 335 243 193 352 292 447 405 50 61 93 110 95 110 1 0 9 -15 17 -32 14 -33
14 -32 15 36 1 60 5 76 32 117 48 76 29 82 -37 12z"/>
<path d="M5919 6158 c7 -9 9 -23 5 -29 -4 -7 -3 -9 4 -5 6 3 20 -6 31 -20 12
-15 23 -25 25 -23 2 2 -14 24 -37 49 -22 25 -35 37 -28 28z"/>
<path d="M5924 6098 c-4 -7 -4 -10 1 -6 4 4 15 2 24 -5 14 -11 14 -10 2 6 -16
20 -18 21 -27 5z"/>
<path d="M6004 6041 c0 -11 4 -18 7 -15 13 8 21 -17 10 -30 -6 -7 -8 -21 -5
-31 5 -12 9 -13 14 -5 5 7 16 -6 30 -34 12 -25 23 -46 25 -46 6 0 -1 29 -8 36
-4 4 -7 14 -7 23 1 13 2 13 11 -2 21 -36 19 -57 -6 -67 -14 -5 -25 -17 -25
-27 1 -16 2 -16 13 -2 7 9 22 21 35 28 21 11 22 13 6 44 -14 27 -72 113 -94
139 -3 4 -6 -1 -6 -11z m57 -73 c12 -22 11 -22 -8 -5 -11 9 -23 14 -26 10 -4
-3 -7 -1 -7 5 0 21 29 13 41 -10z"/>
<path d="M6036 5927 c3 -10 9 -15 12 -12 3 3 0 11 -7 18 -10 9 -11 8 -5 -6z"/>
<path d="M6010 5900 c0 -5 5 -10 10 -10 6 0 10 5 10 10 0 6 -4 10 -10 10 -5 0
-10 -4 -10 -10z"/>
<path d="M6036 5874 c-5 -14 -4 -15 9 -4 17 14 19 20 6 20 -5 0 -12 -7 -15
-16z"/>
<path d="M5993 5827 c-3 -4 -3 -11 0 -14 3 -2 -7 -17 -22 -31 -15 -15 -18 -20
-6 -11 11 9 29 21 40 27 11 6 14 12 8 12 -7 0 -13 4 -13 9 0 5 9 7 20 4 11 -3
20 -1 20 4 0 11 -40 12 -47 0z"/>
<path d="M6125 5672 c-33 -32 -98 -85 -143 -119 l-83 -63 155 0 156 0 -1 38
c0 20 -6 74 -12 119 l-12 81 -60 -56z"/>
<path d="M5807 5406 c-26 -24 -88 -70 -138 -102 l-89 -59 311 -3 c172 -1 315
0 318 3 3 3 7 51 9 105 l4 100 -183 0 -184 -1 -48 -43z"/>
<path d="M5454 5170 c-23 -16 -100 -61 -170 -100 l-129 -70 487 0 487 0 24 53
c22 47 47 120 47 140 0 4 -159 7 -352 7 l-353 -1 -41 -29z"/>
<path d="M5050 4940 c-30 -20 -209 -95 -335 -141 l-130 -48 702 -1 701 0 45
68 c24 37 52 82 61 100 l17 32 -523 0 c-320 0 -529 -4 -538 -10z"/>
<path d="M4362 4687 c-24 -7 -44 -16 -45 -22 -1 -5 39 -43 88 -82 l90 -73 619
0 619 0 52 40 c49 38 122 110 139 138 10 17 -1497 16 -1562 -1z"/>
<path d="M4620 4443 c215 -98 478 -136 693 -98 98 17 225 61 289 99 l43 26
-540 -1 -540 -1 55 -25z"/>
<path d="M4800 3590 l0 -280 60 0 60 0 0 233 c0 215 -2 234 -20 265 -17 27
-70 62 -95 62 -3 0 -5 -126 -5 -280z"/>
<path d="M5030 3840 c-11 -11 -20 -29 -20 -40 0 -27 35 -60 63 -60 37 0 60 23
60 60 0 56 -62 81 -103 40z"/>
<path d="M4390 3575 l0 -265 165 0 165 0 0 33 c0 55 -22 67 -129 67 l-92 0 3
63 3 62 98 3 97 3 0 44 0 45 -100 0 -100 0 0 55 0 55 86 0 c107 0 124 8 124
60 l0 40 -160 0 -160 0 0 -265z"/>
<path d="M5290 3787 c-44 -12 -45 -13 -48 -54 -3 -38 -6 -43 -28 -43 -21 0
-24 -4 -24 -40 0 -36 3 -40 25 -40 25 0 25 -1 25 -80 0 -175 28 -220 136 -220
l64 0 0 45 c0 41 -2 45 -24 45 -45 0 -56 23 -56 121 l0 89 45 0 45 0 0 40 0
40 -45 0 -45 0 0 55 c0 61 1 60 -70 42z"/>
<path d="M5587 3679 c-57 -30 -89 -86 -94 -167 -9 -134 62 -203 206 -201 108
1 127 8 123 45 -5 51 -7 53 -57 42 -26 -5 -62 -7 -82 -3 -35 6 -83 44 -83 65
0 6 45 10 126 10 l127 0 -6 60 c-10 111 -68 170 -166 170 -36 -1 -70 -8 -94
-21z m137 -81 c32 -45 23 -53 -54 -50 -38 2 -70 7 -70 11 0 5 9 20 21 35 27
34 81 36 103 4z"/>
<path d="M5012 3503 l3 -188 58 -3 57 -3 0 191 0 190 -60 0 -60 0 2 -187z"/>
<path d="M4410 3103 c0 -26 -3 -65 -6 -85 -5 -31 -4 -38 10 -38 13 0 16 13 17
73 l1 72 22 -69 c12 -38 27 -71 33 -73 6 -2 21 28 35 69 l23 73 3 -72 c2 -59
6 -73 19 -73 13 0 15 8 9 46 -3 26 -6 64 -6 85 0 32 -3 39 -20 39 -16 0 -23
-13 -37 -60 -10 -33 -20 -60 -24 -60 -3 0 -12 26 -20 58 -12 45 -19 58 -37 60
-20 3 -22 -1 -22 -45z"/>
<path d="M4660 3135 c0 -9 5 -15 11 -13 6 2 11 8 11 13 0 5 -5 11 -11 13 -6 2
-11 -4 -11 -13z"/>
<path d="M5390 3135 c0 -9 5 -15 11 -13 6 2 11 8 11 13 0 5 -5 11 -11 13 -6 2
-11 -4 -11 -13z"/>
<path d="M5260 3116 c0 -8 -6 -17 -12 -20 -10 -5 -10 -7 0 -12 6 -3 12 -23 12
-44 0 -42 20 -66 47 -55 17 6 17 7 1 16 -23 13 -25 79 -3 79 8 0 15 5 15 10 0
6 -7 10 -15 10 -8 0 -15 7 -15 15 0 8 -7 15 -15 15 -8 0 -15 -6 -15 -14z"/>
<path d="M4660 3040 c0 -47 3 -60 15 -60 12 0 15 13 15 60 0 47 -3 60 -15 60
-12 0 -15 -13 -15 -60z"/>
<path d="M4770 3080 c-26 -26 -25 -55 1 -81 14 -14 28 -19 45 -15 17 5 24 2
24 -9 0 -16 -42 -31 -59 -21 -5 4 -12 2 -15 -3 -7 -10 16 -21 45 -21 39 0 59
35 59 105 0 37 -4 65 -10 65 -5 0 -10 -5 -10 -10 0 -7 -6 -7 -19 0 -28 14 -38
13 -61 -10z m68 -34 c4 -35 -9 -50 -37 -41 -15 4 -21 15 -21 35 0 48 53 54 58
6z"/>
<path d="M4950 3040 c0 -47 3 -60 15 -60 11 0 15 11 15 41 0 32 4 42 20 46 11
3 20 12 20 19 0 17 -12 18 -29 2 -11 -10 -14 -10 -18 0 -11 31 -23 7 -23 -48z"/>
<path d="M5090 3090 c-11 -7 -7 -10 17 -10 42 0 51 -17 14 -25 -74 -16 -64
-70 13 -70 l46 -1 0 42 c0 63 -44 94 -90 64z m58 -67 c-4 -22 -48 -31 -48 -10
0 19 10 27 32 27 13 0 18 -6 16 -17z"/>
<path d="M5390 3040 c0 -47 3 -60 15 -60 12 0 15 13 15 60 0 47 -3 60 -15 60
-12 0 -15 -13 -15 -60z"/>
<path d="M5510 3080 c-11 -11 -20 -29 -20 -40 0 -26 34 -60 60 -60 26 0 60 34
60 60 0 26 -34 60 -60 60 -11 0 -29 -9 -40 -20z m68 -36 c3 -33 -15 -49 -43
-38 -18 7 -20 60 -2 67 26 12 42 1 45 -29z"/>
<path d="M5680 3040 c0 -47 3 -60 15 -60 11 0 15 12 15 44 0 31 5 46 16 50 26
10 34 -2 34 -50 0 -32 4 -44 15 -44 21 0 21 83 -1 104 -18 19 -28 20 -55 6
-13 -7 -19 -7 -19 0 0 5 -4 10 -10 10 -6 0 -10 -27 -10 -60z"/>
</g>
</svg>
